<?xml version="1.0" ?><svg style="enable-background:new 0 0 64 64;" version="1.1" viewBox="0 0 64 64" xml:space="preserve" xmlns="http://www.w3.org/2000/svg" xmlns:xlink="http://www.w3.org/1999/xlink"><style type="text/css">
	.st0{fill:#FFEEA9;}
	.st1{fill:#D32436;}
	.st2{fill:#8DD1D3;}
	.st3{fill:#330D00;}
	.st4{fill:none;stroke:#330D00;stroke-linecap:round;stroke-linejoin:round;stroke-miterlimit:10;}
</style><g id="_x34_0-Id_Card"/><g id="_x33_9-Formula"/><g id="_x33_8-Elbow"/><g id="_x33_7-Diploma"/><g id="_x33_6-Laptop"/><g id="_x33_5-Brush"/><g id="_x33_4-Baseball"/><g id="_x33_3-Student"><g><g><polygon class="st2" points="62.9,13.2 49.7,18 32,24.3 14.3,18 1.1,13.2 32,2.2    "/></g><g><path class="st1" d="M58.5,33.1h-4.4v-5.6c0-0.6,0.4-1,1-1h2.4c0.6,0,1,0.4,1,1V33.1z"/></g><g><path class="st0" d="M49.7,18v1.7c0,6.7-3.7,12.6-9.1,15.6c-2.5,1.4-5.3,2.2-8.4,2.2h-0.4c-3,0-5.9-0.8-8.4-2.2     c-5.4-3.1-9.1-9-9.1-15.6V18L32,24.3L49.7,18z"/></g><g><path class="st1" d="M58.5,50.8v11h-53v-11c0-8.5,6.9-15.4,15.4-15.4h2.5c2.5,1.4,5.3,2.2,8.4,2.2h0.4c3,0,5.9-0.8,8.4-2.2H43     C51.6,35.3,58.5,42.2,58.5,50.8z"/></g><g><path class="st3" d="M63.3,12.2l-30.9-11c-0.2-0.1-0.5-0.1-0.7,0l-30.9,11c-0.4,0.2-0.7,0.6-0.7,1c0,0.5,0.3,0.9,0.7,1l12.5,4.5     v0.9c0,5.7,2.6,11,6.8,14.6c-8.7,0.5-15.6,7.7-15.6,16.5v11c0,0.6,0.5,1.1,1.1,1.1h53c0.6,0,1.1-0.5,1.1-1.1v-11     c0-8.8-6.9-16-15.6-16.5c4.3-3.6,6.8-8.9,6.8-14.6v-0.9l4.4-1.6v8.4C53.9,26,53,27.3,53,28.7v4.4c0,0.6,0.5,1.1,1.1,1.1h4.4     c0.6,0,1.1-0.5,1.1-1.1v-4.4c0-1.4-0.9-2.7-2.2-3.1v-9.2l5.9-2.1c0.4-0.2,0.7-0.6,0.7-1C64,12.8,63.7,12.4,63.3,12.2z M57.4,32     h-2.2v-3.3c0-0.6,0.5-1.1,1.1-1.1c0.6,0,1.1,0.5,1.1,1.1V32z M57.4,50.8v9.9H6.6v-9.9c0-7.9,6.4-14.3,14.3-14.3h2.2     c0.3,0.2,0.7,0.3,1,0.5c0.3,0.1,0.6,0.3,1,0.4c0.4,0.2,0.8,0.3,1.2,0.4c0.3,0.1,0.6,0.2,1,0.3c0.5,0.1,0.9,0.2,1.4,0.3     c0.3,0.1,0.6,0.1,0.9,0.2c0.8,0.1,1.5,0.2,2.3,0.2h0.4c0.8,0,1.5-0.1,2.3-0.2c0.3,0,0.5-0.1,0.8-0.2c0.5-0.1,0.9-0.2,1.4-0.3     c0.3-0.1,0.6-0.2,0.9-0.3c0.4-0.1,0.9-0.3,1.3-0.4c0.3-0.1,0.6-0.3,0.9-0.4c0.4-0.2,0.7-0.3,1.1-0.5H43     C50.9,36.4,57.4,42.8,57.4,50.8z M48.6,19.7c0,6.1-3.3,11.7-8.5,14.7c-2.4,1.3-5.1,2.1-7.8,2.1h-0.4c-0.7,0-1.4-0.1-2.1-0.2     c-2-0.3-3.9-0.9-5.7-1.9c-5.3-3-8.5-8.6-8.5-14.7v-0.1l16.2,5.8c0.1,0,0.2,0.1,0.4,0.1c0.1,0,0.3,0,0.4-0.1l16.2-5.8V19.7z      M49.3,16.9C49.3,16.9,49.3,16.9,49.3,16.9L32,23.1l-17.3-6.2c0,0,0,0,0,0L4.4,13.2L32,3.4l27.6,9.9L49.3,16.9z"/></g></g></g><g id="_x33_2-Highlighter"/><g id="_x33_1-Ruler"/><g id="_x33_0-Caliper"/><g id="_x32_9-Ruler_Elbow"/><g id="_x32_8-Abacus"/><g id="_x32_7-Id_Card"/><g id="_x32_6-Eraser"/><g id="_x32_5-Pencil"/><g id="_x32_4-Ink"/><g id="_x32_3-Graduation_Cap"/><g id="_x32_2-_Sling_Bag"/><g id="_x32_1-Rugby_Ball"/><g id="_x32_0-Clock"/><g id="_x31_9-Certificate"/><g id="_x31_8-Idea"/><g id="_x31_7-Bookshelf"/><g id="_x31_6-Formula"/><g id="_x31_5-Bell"/><g id="_x31_4-Magnifying_Glass"/><g id="_x31_3-Calculator"/><g id="_x31_2-Eyeglasses"/><g id="_x31_1-Bus"/><g id="_x31_0-Trophy"/><g id="_x39_-Globe"/><g id="_x38_-Basket_Ball"/><g id="_x37_-Pen"/><g id="_x36_-Board"/><g id="_x35_-Bag"/><g id="_x34_-Exam"/><g id="_x33_-Book"/><g id="_x32_-Ruler"/><g id="_x31_-Building"/></svg>