<svg xmlns="http://www.w3.org/2000/svg" viewBox="0 0 47.5 47.5" id="dancing"><defs><clipPath id="a"><path d="M0 38h38V0H0v38Z"></path></clipPath></defs><g clip-path="url(#a)" transform="matrix(1.25 0 0 -1.25 0 47.5)"><path fill="#662113" d="M17 36c.203.378.538.985 1.806.602C20.722 36.022 19 35 19 35s2-1 2-4-1-1.838-1-5c0-2-2 0-2 0l-3-3c-4-4-6 1-5 3s0 2 0 4 2 2 2 4 2 3 3 3 2-1 2-1"></path><path fill="#d99e82" d="M13 32c0-1.657 1.176-3 2.625-3 1.45 0 2.625 1.343 2.625 3s-1.175 3-2.625 3C14.176 35 13 33.657 13 32"></path><path fill="#662113" d="M15.5 36c-.927 0-1.727-.306-2.158-.755-1.103.207-.478-1.517-1.342-3.245-1-2 1-4 1-3s0 4 2 4h.5c1.381 0 2.5.671 2.5 1.5S16.881 36 15.5 36"></path><path fill="#d99e82" d="M23.707 26.707c-.373.373-1.806 1.217-7.027 1.286l-.432 3.883a1.001 1.001 0 0 1-1.988-.22L14.666 28h-4.584l-5.917.986a1 1 0 1 1-.33-1.972l6-1A.92.92 0 0 1 10 26h2.749c.009-.262.086-.588.251-1 1-2.5 3-8 3-8 2.209 0 3 5.015 3 7.5 0 .603-.048 1.06-.15 1.407 1.206-.088 2.027-.223 2.567-.351L19.2 22.6a1 1 0 0 1 1.6-1.2l3 4a1 1 0 0 1-.093 1.307M16.998 4a.999.999 0 0 0-.988.858l-1 7a1 1 0 1 0 1.979.284l1-7A1 1 0 0 0 16.998 4"></path><path fill="#d99e82" d="M16.999 16a1 1 0 0 0-.183 1.982l15.999 3.001a.994.994 0 0 0 1.167-.799.998.998 0 0 0-.797-1.167l-16.001-2.999a.974.974 0 0 0-.185-.018"></path><path fill="#dd2e44" d="M13 24s1-1 1-3 0-3-2-6-4-3-5-5 0-2 2-1 1-4 4-4 2 3 4 3 3-3 5-3 2.581 2.419 1 4c-1 1 2 3 3 2 1.581-1.581 3.236.764 1 3-1 1-1.789 2.105 0 3 2 1 2.5 5 0 4-3.344-1.338-8-3.161-8 0v4s-2 0-2 3c0 0-1.25-4-3.25 0 0 0 1.25-3-.75-4"></path><path fill="#dd2e44" d="M17 1a1 1 0 0 0-1 1v3a1 1 0 1 0 2 0V2a1 1 0 0 0-1-1M33.429 18.37a.999.999 0 0 0-.777 1.627l1.781 2.212a1 1 0 0 0 1.557-1.255l-1.782-2.211a.993.993 0 0 0-.779-.373"></path></g></svg>